<svg xmlns="http://www.w3.org/2000/svg" xmlns:xlink="http://www.w3.org/1999/xlink" version="1.1" width="256" height="256" viewBox="0 0 256 256" xml:space="preserve">
<g style="stroke: none; stroke-width: 0; stroke-dasharray: none; stroke-linecap: butt; stroke-linejoin: miter; stroke-miterlimit: 10; fill: none; fill-rule: nonzero; opacity: 1;" transform="translate(1.4065934065934016 1.4065934065934016) scale(2.81 2.81)">
	<circle cx="45" cy="45" r="45" style="stroke: none; stroke-width: 1; stroke-dasharray: none; stroke-linecap: butt; stroke-linejoin: miter; stroke-miterlimit: 10; fill: rgb(240,240,240); fill-rule: nonzero; opacity: 1;" transform="  matrix(1 0 0 1 0 0) "/>
	<path d="M 44.993 39.893 c 0 0.508 -0.097 0.953 -0.288 1.337 c -0.192 0.384 -0.45 0.701 -0.774 0.952 c -0.384 0.302 -0.805 0.517 -1.265 0.645 c -0.459 0.128 -1.042 0.191 -1.75 0.191 h -4.084 V 32.815 h 3.604 c 0.75 0 1.317 0.028 1.703 0.086 c 0.386 0.057 0.748 0.177 1.086 0.359 c 0.365 0.196 0.639 0.459 0.819 0.788 s 0.271 0.708 0.271 1.138 c 0 0.498 -0.125 0.94 -0.373 1.329 c -0.249 0.389 -0.593 0.674 -1.031 0.856 v 0.055 c 0.63 0.133 1.135 0.403 1.514 0.813 C 44.803 38.647 44.993 39.199 44.993 39.893 z M 41.711 35.7 c 0 -0.164 -0.043 -0.333 -0.127 -0.507 c -0.085 -0.174 -0.216 -0.3 -0.395 -0.377 c -0.169 -0.073 -0.369 -0.113 -0.6 -0.12 s -0.574 -0.01 -1.031 -0.01 h -0.178 v 2.158 h 0.322 c 0.438 0 0.745 -0.005 0.921 -0.014 c 0.176 -0.01 0.357 -0.058 0.545 -0.145 c 0.206 -0.096 0.348 -0.228 0.425 -0.397 C 41.672 36.12 41.711 35.923 41.711 35.7 z M 42.355 39.845 c 0 -0.315 -0.063 -0.562 -0.191 -0.74 c -0.128 -0.178 -0.32 -0.313 -0.576 -0.404 c -0.155 -0.059 -0.369 -0.092 -0.641 -0.099 s -0.636 -0.011 -1.093 -0.011 h -0.473 v 2.556 h 0.137 c 0.667 0 1.129 -0.004 1.385 -0.014 c 0.256 -0.009 0.516 -0.07 0.781 -0.185 c 0.232 -0.101 0.402 -0.248 0.51 -0.442 C 42.301 40.313 42.355 40.092 42.355 39.845 z" style="stroke: none; stroke-width: 1; stroke-dasharray: none; stroke-linecap: butt; stroke-linejoin: miter; stroke-miterlimit: 10; fill: rgb(0,80,175); fill-rule: nonzero; opacity: 1;" transform=" matrix(1 0 0 1 0 0) " stroke-linecap="round"/>
	<path d="M 45.364 43.018 l 3.446 -10.203 h 2.797 l 3.447 10.203 h -2.639 l -0.637 -2.083 h -3.207 l -0.639 2.083 H 45.364 z M 51.216 39.084 l -1.041 -3.364 l -1.043 3.364 H 51.216 z" style="stroke: none; stroke-width: 1; stroke-dasharray: none; stroke-linecap: butt; stroke-linejoin: miter; stroke-miterlimit: 10; fill: rgb(0,80,175); fill-rule: nonzero; opacity: 1;" transform=" matrix(1 0 0 1 0 0) " stroke-linecap="round"/>
	<path d="M 64.809 43.018 h -2.467 l -3.934 -7.112 v 7.112 h -2.342 V 32.815 h 3.145 l 3.254 5.845 v -5.845 h 2.344 V 43.018 z" style="stroke: none; stroke-width: 1; stroke-dasharray: none; stroke-linecap: butt; stroke-linejoin: miter; stroke-miterlimit: 10; fill: rgb(0,80,175); fill-rule: nonzero; opacity: 1;" transform=" matrix(1 0 0 1 0 0) " stroke-linecap="round"/>
	<path d="M 75.823 43.018 h -3.098 l -2.783 -4.146 l -0.5 0.699 v 3.446 H 66.88 V 32.815 h 2.563 v 4.529 l 3.262 -4.529 h 2.967 l -3.639 4.735 L 75.823 43.018 z" style="stroke: none; stroke-width: 1; stroke-dasharray: none; stroke-linecap: butt; stroke-linejoin: miter; stroke-miterlimit: 10; fill: rgb(0,80,175); fill-rule: nonzero; opacity: 1;" transform=" matrix(1 0 0 1 0 0) " stroke-linecap="round"/>
	<path d="M 15.355 57.027 v -7.061 h -2.578 v -1.664 h 7.348 v 1.664 h -2.578 v 7.061 H 15.355 z" style="stroke: none; stroke-width: 1; stroke-dasharray: none; stroke-linecap: butt; stroke-linejoin: miter; stroke-miterlimit: 10; fill: rgb(0,80,175); fill-rule: nonzero; opacity: 1;" transform=" matrix(1 0 0 1 0 0) " stroke-linecap="round"/>
	<path d="M 29.095 57.027 h -2.672 l -2.432 -3.199 h -0.785 v 3.199 h -2.18 v -8.725 h 3.51 c 0.484 0 0.906 0.03 1.266 0.091 s 0.691 0.187 0.996 0.378 c 0.313 0.199 0.561 0.452 0.744 0.759 s 0.275 0.696 0.275 1.169 c 0 0.668 -0.15 1.21 -0.451 1.626 s -0.703 0.747 -1.207 0.993 L 29.095 57.027 z M 25.568 50.974 c 0 -0.219 -0.042 -0.407 -0.126 -0.565 s -0.224 -0.28 -0.419 -0.366 c -0.137 -0.059 -0.289 -0.096 -0.457 -0.111 s -0.377 -0.023 -0.627 -0.023 h -0.732 v 2.35 h 0.627 c 0.305 0 0.563 -0.019 0.776 -0.056 s 0.394 -0.116 0.542 -0.237 c 0.141 -0.109 0.245 -0.24 0.313 -0.393 S 25.568 51.22 25.568 50.974 z" style="stroke: none; stroke-width: 1; stroke-dasharray: none; stroke-linecap: butt; stroke-linejoin: miter; stroke-miterlimit: 10; fill: rgb(0,80,175); fill-rule: nonzero; opacity: 1;" transform=" matrix(1 0 0 1 0 0) " stroke-linecap="round"/>
	<path d="M 28.802 57.027 l 2.947 -8.725 h 2.391 l 2.947 8.725 h -2.256 l -0.545 -1.781 h -2.742 l -0.545 1.781 H 28.802 z M 33.806 53.664 l -0.891 -2.877 l -0.891 2.877 H 33.806 z" style="stroke: none; stroke-width: 1; stroke-dasharray: none; stroke-linecap: butt; stroke-linejoin: miter; stroke-miterlimit: 10; fill: rgb(0,80,175); fill-rule: nonzero; opacity: 1;" transform=" matrix(1 0 0 1 0 0) " stroke-linecap="round"/>
	<path d="M 45.431 57.027 h -2.109 l -3.363 -6.082 v 6.082 h -2.004 v -8.725 h 2.689 l 2.783 4.998 v -4.998 h 2.004 V 57.027 z" style="stroke: none; stroke-width: 1; stroke-dasharray: none; stroke-linecap: butt; stroke-linejoin: miter; stroke-miterlimit: 10; fill: rgb(0,80,175); fill-rule: nonzero; opacity: 1;" transform=" matrix(1 0 0 1 0 0) " stroke-linecap="round"/>
	<path d="M 49.895 57.185 c -0.668 0 -1.254 -0.064 -1.76 -0.193 s -0.977 -0.289 -1.41 -0.48 v -2.074 h 0.199 c 0.438 0.371 0.92 0.656 1.447 0.855 s 1.039 0.299 1.535 0.299 c 0.125 0 0.291 -0.014 0.496 -0.041 s 0.369 -0.07 0.494 -0.129 c 0.152 -0.066 0.281 -0.159 0.387 -0.278 s 0.158 -0.276 0.158 -0.472 c 0 -0.219 -0.086 -0.396 -0.258 -0.533 s -0.377 -0.236 -0.615 -0.299 c -0.297 -0.078 -0.613 -0.152 -0.951 -0.223 s -0.654 -0.156 -0.947 -0.258 c -0.676 -0.238 -1.16 -0.559 -1.453 -0.961 s -0.439 -0.906 -0.439 -1.512 c 0 -0.816 0.346 -1.478 1.037 -1.983 s 1.555 -0.759 2.59 -0.759 c 0.52 0 1.037 0.053 1.551 0.158 s 0.973 0.248 1.379 0.428 v 1.992 h -0.193 c -0.324 -0.277 -0.719 -0.512 -1.186 -0.703 s -0.947 -0.287 -1.439 -0.287 c -0.191 0 -0.363 0.014 -0.516 0.041 s -0.313 0.08 -0.48 0.158 c -0.137 0.063 -0.254 0.155 -0.354 0.278 s -0.15 0.261 -0.15 0.413 c 0 0.223 0.08 0.399 0.238 0.53 s 0.463 0.249 0.916 0.354 c 0.293 0.066 0.576 0.131 0.848 0.193 s 0.561 0.148 0.869 0.258 c 0.605 0.219 1.057 0.513 1.352 0.882 s 0.441 0.856 0.441 1.462 c 0 0.867 -0.34 1.564 -1.021 2.092 S 51.055 57.185 49.895 57.185 z" style="stroke: none; stroke-width: 1; stroke-dasharray: none; stroke-linecap: butt; stroke-linejoin: miter; stroke-miterlimit: 10; fill: rgb(0,80,175); fill-rule: nonzero; opacity: 1;" transform=" matrix(1 0 0 1 0 0) " stroke-linecap="round"/>
	<path d="M 60.641 49.966 h -3.662 v 1.646 h 3.369 v 1.664 h -3.369 v 3.75 H 54.8 v -8.725 h 5.842 V 49.966 z" style="stroke: none; stroke-width: 1; stroke-dasharray: none; stroke-linecap: butt; stroke-linejoin: miter; stroke-miterlimit: 10; fill: rgb(0,80,175); fill-rule: nonzero; opacity: 1;" transform=" matrix(1 0 0 1 0 0) " stroke-linecap="round"/>
	<path d="M 61.772 57.027 v -8.725 h 5.9 v 1.664 h -3.721 v 1.529 h 3.428 v 1.664 h -3.428 v 2.203 h 3.721 v 1.664 H 61.772 z" style="stroke: none; stroke-width: 1; stroke-dasharray: none; stroke-linecap: butt; stroke-linejoin: miter; stroke-miterlimit: 10; fill: rgb(0,80,175); fill-rule: nonzero; opacity: 1;" transform=" matrix(1 0 0 1 0 0) " stroke-linecap="round"/>
	<path d="M 77.223 57.027 h -2.672 l -2.432 -3.199 h -0.785 v 3.199 h -2.18 v -8.725 h 3.51 c 0.484 0 0.906 0.03 1.266 0.091 s 0.691 0.187 0.996 0.378 c 0.313 0.199 0.561 0.452 0.744 0.759 s 0.275 0.696 0.275 1.169 c 0 0.668 -0.15 1.21 -0.451 1.626 s -0.703 0.747 -1.207 0.993 L 77.223 57.027 z M 73.696 50.974 c 0 -0.219 -0.041 -0.407 -0.125 -0.565 s -0.225 -0.28 -0.42 -0.366 c -0.137 -0.059 -0.289 -0.096 -0.457 -0.111 s -0.377 -0.023 -0.627 -0.023 h -0.732 v 2.35 h 0.627 c 0.305 0 0.564 -0.019 0.777 -0.056 s 0.393 -0.116 0.541 -0.237 c 0.141 -0.109 0.246 -0.24 0.314 -0.393 S 73.696 51.22 73.696 50.974 z" style="stroke: none; stroke-width: 1; stroke-dasharray: none; stroke-linecap: butt; stroke-linejoin: miter; stroke-miterlimit: 10; fill: rgb(0,80,175); fill-rule: nonzero; opacity: 1;" transform=" matrix(1 0 0 1 0 0) " stroke-linecap="round"/>
	<rect x="12.78" y="41.15" rx="0" ry="0" width="20.14" height="1.87" style="stroke: none; stroke-width: 1; stroke-dasharray: none; stroke-linecap: butt; stroke-linejoin: miter; stroke-miterlimit: 10; fill: rgb(0,175,95); fill-rule: nonzero; opacity: 1;" transform=" matrix(1 0 0 1 0 0) "/>
	<rect x="19.78" y="36.98" rx="0" ry="0" width="13.14" height="1.87" style="stroke: none; stroke-width: 1; stroke-dasharray: none; stroke-linecap: butt; stroke-linejoin: miter; stroke-miterlimit: 10; fill: rgb(0,175,95); fill-rule: nonzero; opacity: 1;" transform=" matrix(1 0 0 1 0 0) "/>
	<rect x="26.78" y="32.81" rx="0" ry="0" width="6.14" height="1.87" style="stroke: none; stroke-width: 1; stroke-dasharray: none; stroke-linecap: butt; stroke-linejoin: miter; stroke-miterlimit: 10; fill: rgb(0,175,95); fill-rule: nonzero; opacity: 1;" transform=" matrix(1 0 0 1 0 0) "/>
</g>
</svg>